<svg xmlns="http://www.w3.org/2000/svg" viewBox="24.293548583984375 133.1043873273964 526.4129028320312 308.29930685199474"><rect height="100%" width="100%" x="24.293548583984375" y="133.1043873273964" fill="#ffffff"/> <g transform="rotate(0 287.5 245.19927355351746)"><svg xmlns="http://www.w3.org/2000/svg" xmlns:xlink="http://www.w3.org/1999/xlink" version="1.1" id="Layer_1" x="221.66666666666669" y="203.1043873273964" viewBox="240.85995483398438 334.3199768066406 518.27001953125 331.3899841308594" xml:space="preserve" height="84.18977245224212" width="131.66666666666666" preserveAspectRatio="xMinYMin" enable-background="new 0 0 1000 1000" style="overflow: visible;"><path class="st0" d="M674.24,440.58c10.87,1.43,21.53,4.33,31.66,8.56c-1.93-4.6-4.01-9.12-6.29-13.51   c-6.21-12.01-13.68-23.26-22.25-33.58c-34.32-41.35-86.08-67.73-143.9-67.73c-82.82,0-153.22,54.14-177.7,128.88h-13.65   c-55.83,0-101.25,45.42-101.25,101.26c0,55.82,45.42,101.25,101.25,101.25h30.24l202.5-202.5h-55.84L355.99,626.22h-13.88   c-34.06,0-61.77-27.71-61.77-61.77c0-34.06,27.71-61.77,61.77-61.77h45.11c2.08-15.43,8.8-35.03,10.72-39.48   c22.58-52.52,74.83-89.41,135.53-89.41c72.51,0,109.76,48.67,115.81,56.34c2.38,3.03,4.64,6.15,6.8,9.35h1.82   C663.33,439.48,673.27,440.45,674.24,440.58z" style="fill: #4A73E8; fill-opacity: 1;"></path><path class="st1" d="M716.19,481.74c-13.08-9.25-28.43-15.47-45.05-17.65c-0.61-0.08-9.4-0.9-13.26-0.9h-41.68L413.7,665.69h55.83   l163.03-163.02h25.33c7.87,0,15.4,1.5,22.33,4.19c23.05,8.97,39.44,31.39,39.44,57.58c0,25.92-16.05,48.15-38.73,57.3   c-7.12,2.88-14.9,4.47-23.04,4.47H550.36l-39.48,39.48h147c30.01,0,51.08-12.69,62.52-21.7c23.56-18.56,38.73-47.31,38.73-79.55   C759.14,530.31,742.14,500.09,716.19,481.74z" style="fill: #FC832B; fill-opacity: 1;"></path></svg></g> <g transform="rotate(0 287.5 360.5493316915982)"><svg xmlns="http://www.w3.org/2000/svg" x="94.29354858398438" y="349.6949692038052" viewBox="-192.4822998046875 -9.11633586883545 386.41290283203125 21.708724975585938" height="21.708724975585938" width="386.41290283203125" style="overflow: visible;"><g fill="#FC832B" fill-opacity="1" style=""><path d="M5.40-8.03L5.40-8.03Q4.42-8.03 4.23-7.98L4.23-7.98L2.56-1.04Q2.67-1.01 2.91-0.99Q3.16-0.98 3.72-0.98L3.72-0.98Q4.75-0.98 5.57-1.32Q6.40-1.66 6.97-2.28Q7.54-2.90 7.85-3.75Q8.16-4.60 8.16-5.62L8.16-5.62Q8.16-6.76 7.50-7.40Q6.84-8.03 5.40-8.03ZM5.50-9.10L5.50-9.10Q7.50-9.10 8.49-8.16Q9.48-7.22 9.48-5.62L9.48-5.62Q9.48-4.50 9.13-3.46Q8.78-2.43 8.03-1.64Q7.29-0.85 6.14-0.38Q4.99 0.09 3.39 0.09L3.39 0.09Q2.85 0.09 2.21 0.04Q1.57-0.01 1.09-0.14L1.09-0.14L3.19-8.89Q3.73-9.02 4.34-9.06Q4.95-9.10 5.50-9.10Z" transform="translate(-4.955785714285715 0), rotate(-7.305706838303816 5.2844999999999995 1474.4287148397455)"></path><path d="M6.68 0L1.05 0L3.21-9.01L8.53-9.01L8.28-7.96L4.21-7.96L3.56-5.24L7.18-5.24L6.93-4.21L3.33-4.21L2.56-1.05L6.93-1.05L6.68 0Z" transform="translate(-4.084785714285714 0), rotate(-6.951268348089465 4.790500000000001 1474.4287148397455)"></path><path d="M2.56-1.05L6.55-1.05L6.31 0L1.05 0L3.21-9.01L4.47-9.01L2.56-1.05Z" transform="translate(-3.7597857142857145 0), rotate(-6.643719419850881 3.8025 1474.4287148397455)"></path><path d="M1.05 0L3.21-9.01L4.47-9.01L2.31 0L1.05 0Z" transform="translate(-2.1737857142857147 0), rotate(-6.4110918569431465 2.7625 1474.4287148397455)"></path><path d="M4.30-1.50L4.30-1.50Q4.85-2.28 5.41-3.17Q5.98-4.07 6.55-5.04Q7.11-6.01 7.65-7.01Q8.19-8.01 8.68-9.01L8.68-9.01L10.08-9.01Q9.36-7.66 8.68-6.44Q8.00-5.23 7.33-4.11Q6.66-3.00 5.99-1.98Q5.32-0.96 4.62 0L4.62 0L3.38 0Q3.19-0.98 3.02-1.97Q2.85-2.96 2.70-4.06Q2.56-5.15 2.42-6.36Q2.29-7.58 2.16-9.01L2.16-9.01L3.46-9.01Q3.67-6.70 3.85-4.86Q4.04-3.03 4.30-1.50Z" transform="translate(-4.5137857142857145 0), rotate(-6.148903483224601 6.1165 1474.4287148397455)"></path><path d="M6.68 0L1.05 0L3.21-9.01L8.53-9.01L8.28-7.96L4.21-7.96L3.56-5.24L7.18-5.24L6.93-4.21L3.33-4.21L2.56-1.05L6.93-1.05L6.68 0Z" transform="translate(-4.084785714285714 0), rotate(-5.8117937441752066 4.790500000000001 1474.4287148397455)"></path><path d="M5.50-9.10L5.50-9.10Q6.94-9.10 7.79-8.52Q8.63-7.93 8.63-6.80L8.63-6.80Q8.63-5.66 7.96-4.88Q7.29-4.11 6.08-3.77L6.08-3.77Q6.24-3.50 6.45-3.07Q6.66-2.65 6.88-2.14Q7.10-1.63 7.31-1.07Q7.51-0.52 7.67 0L7.67 0L6.38 0Q6.20-0.49 6.01-1.00Q5.81-1.51 5.61-1.98Q5.41-2.44 5.21-2.85Q5.01-3.26 4.84-3.58L4.84-3.58Q4.67-3.56 4.50-3.56Q4.33-3.55 4.16-3.55L4.16-3.55L3.16-3.55L2.31 0L1.05 0L3.19-8.89Q3.73-9.02 4.34-9.06Q4.95-9.10 5.50-9.10ZM5.34-8.03L5.34-8.03Q4.42-8.03 4.23-7.98L4.23-7.98L3.41-4.58L4.17-4.58Q4.71-4.58 5.27-4.65Q5.82-4.73 6.29-4.96Q6.75-5.19 7.04-5.60Q7.33-6.01 7.33-6.68L7.33-6.68Q7.33-7.41 6.78-7.72Q6.23-8.03 5.34-8.03Z" transform="translate(-4.422785714285714 0), rotate(-5.478251689189186 4.842500000000001 1474.4287148397455)"></path><path d="M1.05 0L3.21-9.01L4.47-9.01L2.31 0L1.05 0Z" transform="translate(-2.1737857142857147 0), rotate(-5.219630999534013 2.7625 1474.4287148397455)"></path><path d="M7.97 0L6.86 0Q6.63-0.75 6.31-1.72Q5.98-2.68 5.60-3.67Q5.21-4.65 4.81-5.58Q4.41-6.51 4.02-7.20L4.02-7.20L2.29 0L1.05 0L3.21-9.01L4.29-9.01Q4.71-8.31 5.14-7.42Q5.58-6.53 5.97-5.59Q6.37-4.65 6.71-3.76Q7.05-2.86 7.27-2.15L7.27-2.15L8.88-9.01L10.11-9.01L7.97 0Z" transform="translate(-5.001285714285715 0), rotate(-4.938330032618822 5.5835 1474.4287148397455)"></path><path d="M4.94 0.18L4.94 0.18Q3.30 0.18 2.46-0.76Q1.61-1.70 1.61-3.30L1.61-3.30Q1.61-4.47 1.98-5.54Q2.35-6.60 3.04-7.42Q3.73-8.24 4.70-8.73Q5.67-9.22 6.88-9.22L6.88-9.22Q7.48-9.22 7.91-9.14Q8.35-9.06 8.66-8.96Q8.97-8.85 9.17-8.74Q9.36-8.63 9.48-8.55L9.48-8.55L8.92-7.53Q8.81-7.59 8.63-7.70Q8.45-7.80 8.19-7.90Q7.93-8.00 7.59-8.06Q7.25-8.13 6.83-8.13L6.83-8.13Q5.90-8.13 5.17-7.70Q4.45-7.28 3.95-6.61Q3.45-5.94 3.19-5.10Q2.93-4.26 2.93-3.45L2.93-3.45Q2.93-2.16 3.47-1.53Q4.02-0.90 5.20-0.90L5.20-0.90Q5.68-0.90 6.07-0.96Q6.46-1.03 6.63-1.09L6.63-1.09L7.41-4.39L8.65-4.39L7.66-0.29Q7.50-0.20 7.23-0.11Q6.96-0.03 6.59 0.04Q6.23 0.10 5.80 0.14Q5.38 0.18 4.94 0.18Z" transform="translate(-4.695785714285715 0), rotate(-4.558153250232989 5.5445 1474.4287148397455)"></path><path d="" transform="translate(-1.9657857142857142 0), rotate(-4.296984214818265 0 1474.4287148397455)"></path><path d="M1.05 0L3.21-9.01L4.47-9.01L2.31 0L1.05 0Z" transform="translate(-2.1737857142857147 0), rotate(-4.134690994874182 2.7625 1474.4287148397455)"></path><path d="M7.97 0L6.86 0Q6.63-0.75 6.31-1.72Q5.98-2.68 5.60-3.67Q5.21-4.65 4.81-5.58Q4.41-6.51 4.02-7.20L4.02-7.20L2.29 0L1.05 0L3.21-9.01L4.29-9.01Q4.71-8.31 5.14-7.42Q5.58-6.53 5.97-5.59Q6.37-4.65 6.71-3.76Q7.05-2.86 7.27-2.15L7.27-2.15L8.88-9.01L10.11-9.01L7.97 0Z" transform="translate(-5.001285714285715 0), rotate(-3.8533900279589908 5.5835 1474.4287148397455)"></path><path d="M7.97 0L6.86 0Q6.63-0.75 6.31-1.72Q5.98-2.68 5.60-3.67Q5.21-4.65 4.81-5.58Q4.41-6.51 4.02-7.20L4.02-7.20L2.29 0L1.05 0L3.21-9.01L4.29-9.01Q4.71-8.31 5.14-7.42Q5.58-6.53 5.97-5.59Q6.37-4.65 6.71-3.76Q7.05-2.86 7.27-2.15L7.27-2.15L8.88-9.01L10.11-9.01L7.97 0Z" transform="translate(-5.001285714285715 0), rotate(-3.46123602050326 5.5835 1474.4287148397455)"></path><path d="M6.83-9.22L6.83-9.22Q7.54-9.22 8.14-9.00Q8.75-8.79 9.18-8.36Q9.62-7.93 9.86-7.29Q10.10-6.64 10.10-5.79L10.10-5.79Q10.10-4.71 9.77-3.64Q9.44-2.57 8.79-1.72Q8.14-0.87 7.16-0.34Q6.19 0.20 4.89 0.20L4.89 0.20Q4.16 0.20 3.56-0.02Q2.96-0.23 2.53-0.66Q2.09-1.09 1.85-1.74Q1.61-2.38 1.61-3.24L1.61-3.24Q1.61-4.30 1.94-5.38Q2.26-6.45 2.92-7.30Q3.58-8.15 4.55-8.68Q5.53-9.22 6.83-9.22ZM5.02-0.90L5.02-0.90Q5.89-0.90 6.59-1.32Q7.29-1.74 7.78-2.42Q8.27-3.09 8.53-3.94Q8.79-4.78 8.79-5.63L8.79-5.63Q8.79-6.79 8.29-7.46Q7.79-8.13 6.70-8.13L6.70-8.13Q5.81-8.13 5.12-7.70Q4.42-7.28 3.93-6.60Q3.45-5.93 3.19-5.08Q2.93-4.24 2.93-3.39L2.93-3.39Q2.93-2.24 3.43-1.57Q3.93-0.90 5.02-0.90Z" transform="translate(-5.131285714285715 0), rotate(-3.063985321528423 5.8565000000000005 1474.4287148397455)"></path><path d="M4.30-1.50L4.30-1.50Q4.85-2.28 5.41-3.17Q5.98-4.07 6.55-5.04Q7.11-6.01 7.65-7.01Q8.19-8.01 8.68-9.01L8.68-9.01L10.08-9.01Q9.36-7.66 8.68-6.44Q8.00-5.23 7.33-4.11Q6.66-3.00 5.99-1.98Q5.32-0.96 4.62 0L4.62 0L3.38 0Q3.19-0.98 3.02-1.97Q2.85-2.96 2.70-4.06Q2.56-5.15 2.42-6.36Q2.29-7.58 2.16-9.01L2.16-9.01L3.46-9.01Q3.67-6.70 3.85-4.86Q4.04-3.03 4.30-1.50Z" transform="translate(-4.240785714285714 0), rotate(-2.696550267940353 6.1165 1474.4287148397455)"></path><path d="M6.71-2.31L2.78-2.31L1.51 0L0.13 0Q1.59-2.63 2.97-4.84Q4.36-7.05 5.71-9.01L5.71-9.01L6.94-9.01Q7.14-8.03 7.30-7.04Q7.46-6.05 7.62-4.95Q7.77-3.86 7.92-2.64Q8.06-1.42 8.22 0L8.22 0L6.94 0Q6.88-0.59 6.83-1.18Q6.77-1.77 6.71-2.31L6.71-2.31ZM3.37-3.33L6.59-3.33Q6.49-4.38 6.35-5.42Q6.21-6.46 6.03-7.57L6.03-7.57Q5.58-6.90 4.90-5.86Q4.23-4.81 3.37-3.33L3.37-3.33Z" transform="translate(-4.013285714285715 0), rotate(-2.3729467614165882 4.173 1474.4287148397455)"></path><path d="M2.39-9.01L9.09-9.01L8.84-7.96L6.12-7.96L4.21 0L2.95 0L4.86-7.96L2.15-7.96L2.39-9.01Z" transform="translate(-4.071785714285714 0), rotate(-2.0559689538676595 5.616000000000001 1474.4287148397455)"></path><path d="M1.05 0L3.21-9.01L4.47-9.01L2.31 0L1.05 0Z" transform="translate(-2.1737857142857147 0), rotate(-1.8111093313140714 2.7625 1474.4287148397455)"></path><path d="M6.83-9.22L6.83-9.22Q7.54-9.22 8.14-9.00Q8.75-8.79 9.18-8.36Q9.62-7.93 9.86-7.29Q10.10-6.64 10.10-5.79L10.10-5.79Q10.10-4.71 9.77-3.64Q9.44-2.57 8.79-1.72Q8.14-0.87 7.16-0.34Q6.19 0.20 4.89 0.20L4.89 0.20Q4.16 0.20 3.56-0.02Q2.96-0.23 2.53-0.66Q2.09-1.09 1.85-1.74Q1.61-2.38 1.61-3.24L1.61-3.24Q1.61-4.30 1.94-5.38Q2.26-6.45 2.92-7.30Q3.58-8.15 4.55-8.68Q5.53-9.22 6.83-9.22ZM5.02-0.90L5.02-0.90Q5.89-0.90 6.59-1.32Q7.29-1.74 7.78-2.42Q8.27-3.09 8.53-3.94Q8.79-4.78 8.79-5.63L8.79-5.63Q8.79-6.79 8.29-7.46Q7.79-8.13 6.70-8.13L6.70-8.13Q5.81-8.13 5.12-7.70Q4.42-7.28 3.93-6.60Q3.45-5.93 3.19-5.08Q2.93-4.24 2.93-3.39L2.93-3.39Q2.93-2.24 3.43-1.57Q3.93-0.90 5.02-0.90Z" transform="translate(-5.267785714285715 0), rotate(-1.5193601467847149 5.8565000000000005 1474.4287148397455)"></path><path d="M7.97 0L6.86 0Q6.63-0.75 6.31-1.72Q5.98-2.68 5.60-3.67Q5.21-4.65 4.81-5.58Q4.41-6.51 4.02-7.20L4.02-7.20L2.29 0L1.05 0L3.21-9.01L4.29-9.01Q4.71-8.31 5.14-7.42Q5.58-6.53 5.97-5.59Q6.37-4.65 6.71-3.76Q7.05-2.86 7.27-2.15L7.27-2.15L8.88-9.01L10.11-9.01L7.97 0Z" transform="translate(-5.001285714285715 0), rotate(-1.116757921714818 5.5835 1474.4287148397455)"></path><path d="" transform="translate(-1.9657857142857142 0), rotate(-0.8436116612301952 0 1474.4287148397455)"></path><path d="M1.13-3.33L1.39-4.46L4.54-4.46L4.28-3.33L1.13-3.33Z" transform="translate(-2.3687857142857145 0), rotate(-0.6736734040074559 2.8340000000000005 1474.4287148397455)"></path><path d="" transform="translate(-1.9657857142857142 0), rotate(-0.5037351467847158 0 1474.4287148397455)"></path><path d="M6.68 0L1.05 0L3.21-9.01L8.53-9.01L8.28-7.96L4.21-7.96L3.56-5.24L7.18-5.24L6.93-4.21L3.33-4.21L2.56-1.05L6.93-1.05L6.68 0Z" transform="translate(-4.084785714285714 0), rotate(-0.2665205615097861 4.790500000000001 1474.4287148397455)"></path><path d="M2.31 0L1.05 0L3.21-9.01L8.48-9.01L8.23-7.96L4.21-7.96L3.55-5.20L7.11-5.20L6.86-4.17L3.32-4.17L2.31 0Z" transform="translate(-3.8702857142857146 0), rotate(0.045360554520035734 4.764500000000001 1474.4287148397455)"></path><path d="M2.31 0L1.05 0L3.21-9.01L8.48-9.01L8.23-7.96L4.21-7.96L3.55-5.20L7.11-5.20L6.86-4.17L3.32-4.17L2.31 0Z" transform="translate(-3.8702857142857146 0), rotate(0.348832129543335 4.764500000000001 1474.4287148397455)"></path><path d="M1.05 0L3.21-9.01L4.47-9.01L2.31 0L1.05 0Z" transform="translate(-2.1737857142857147 0), rotate(0.5857918802423088 2.7625 1474.4287148397455)"></path><path d="M5.03 0.20L5.03 0.20Q4.19 0.20 3.54-0.05Q2.90-0.30 2.47-0.75Q2.04-1.21 1.83-1.85Q1.61-2.50 1.61-3.30L1.61-3.30Q1.61-4.47 1.98-5.54Q2.35-6.60 3.04-7.42Q3.72-8.24 4.68-8.73Q5.64-9.22 6.83-9.22L6.83-9.22Q7.84-9.22 8.44-9.01Q9.05-8.80 9.31-8.62L9.31-8.62L8.79-7.58Q8.49-7.77 7.98-7.95Q7.46-8.13 6.76-8.13L6.76-8.13Q5.86-8.13 5.15-7.70Q4.43-7.28 3.94-6.61Q3.45-5.94 3.19-5.10Q2.93-4.26 2.93-3.45L2.93-3.45Q2.93-0.91 5.12-0.91L5.12-0.91Q5.59-0.91 5.96-0.98Q6.33-1.04 6.62-1.12Q6.90-1.21 7.12-1.31Q7.35-1.42 7.51-1.50L7.51-1.50L7.67-0.40Q7.51-0.31 7.26-0.21Q7.01-0.10 6.67-0.01Q6.33 0.08 5.92 0.14Q5.50 0.20 5.03 0.20Z" transform="translate(-4.364285714285715 0), rotate(0.8421190587138847 5.460000000000001 1474.4287148397455)"></path><path d="M1.05 0L3.21-9.01L4.47-9.01L2.31 0L1.05 0Z" transform="translate(-2.1737857142857147 0), rotate(1.0984462371854589 2.7625 1474.4287148397455)"></path><path d="M6.68 0L1.05 0L3.21-9.01L8.53-9.01L8.28-7.96L4.21-7.96L3.56-5.24L7.18-5.24L6.93-4.21L3.33-4.21L2.56-1.05L6.93-1.05L6.68 0Z" transform="translate(-4.084785714285714 0), rotate(1.343815528890958 4.790500000000001 1474.4287148397455)"></path><path d="M7.97 0L6.86 0Q6.63-0.75 6.31-1.72Q5.98-2.68 5.60-3.67Q5.21-4.65 4.81-5.58Q4.41-6.51 4.02-7.20L4.02-7.20L2.29 0L1.05 0L3.21-9.01L4.29-9.01Q4.71-8.31 5.14-7.42Q5.58-6.53 5.97-5.59Q6.37-4.65 6.71-3.76Q7.05-2.86 7.27-2.15L7.27-2.15L8.88-9.01L10.11-9.01L7.97 0Z" transform="translate(-5.001285714285715 0), rotate(1.7000378611369973 5.5835 1474.4287148397455)"></path><path d="M2.39-9.01L9.09-9.01L8.84-7.96L6.12-7.96L4.21 0L2.95 0L4.86-7.96L2.15-7.96L2.39-9.01Z" transform="translate(-3.714285714285715 0), rotate(2.0417346225535864 5.616000000000001 1474.4287148397455)"></path><path d="M1.29-1.48L2.57-1.48Q2.51-1.01 2.35-0.53Q2.20-0.05 1.97 0.41Q1.74 0.87 1.46 1.29Q1.17 1.72 0.86 2.07L0.86 2.07L0.04 1.73Q0.30 1.38 0.51 0.96Q0.73 0.55 0.88 0.12Q1.04-0.31 1.14-0.72Q1.25-1.13 1.29-1.48L1.29-1.48Z" transform="translate(-2.0632857142857146 0), rotate(2.268246155638397 1.3065 1474.4287148397455)"></path><path d="" transform="translate(-1.9657857142857142 0), rotate(2.4262071877912375 0 1474.4287148397455)"></path><path d="M2.31 0L1.05 0L3.21-9.01L8.48-9.01L8.23-7.96L4.21-7.96L3.55-5.20L7.11-5.20L6.86-4.17L3.32-4.17L2.31 0Z" transform="translate(-3.5907857142857145 0), rotate(2.6440543452935676 4.764500000000001 1474.4287148397455)"></path><path d="M6.71-2.31L2.78-2.31L1.51 0L0.13 0Q1.59-2.63 2.97-4.84Q4.36-7.05 5.71-9.01L5.71-9.01L6.94-9.01Q7.14-8.03 7.30-7.04Q7.46-6.05 7.62-4.95Q7.77-3.86 7.92-2.64Q8.06-1.42 8.22 0L8.22 0L6.94 0Q6.88-0.59 6.83-1.18Q6.77-1.77 6.71-2.31L6.71-2.31ZM3.37-3.33L6.59-3.33Q6.49-4.38 6.35-5.42Q6.21-6.46 6.03-7.57L6.03-7.57Q5.58-6.90 4.90-5.86Q4.23-4.81 3.37-3.33L3.37-3.33Z" transform="translate(-4.689285714285715 0), rotate(2.968677190121155 4.173 1474.4287148397455)"></path><path d="M3.20-0.90L3.20-0.90Q3.60-0.90 4.00-0.98Q4.39-1.07 4.71-1.26Q5.02-1.46 5.21-1.77Q5.41-2.09 5.41-2.56L5.41-2.56Q5.41-2.89 5.28-3.13Q5.16-3.37 4.95-3.56Q4.73-3.74 4.44-3.91Q4.15-4.07 3.80-4.25L3.80-4.25Q3.50-4.41 3.19-4.59Q2.89-4.77 2.65-5.04Q2.41-5.30 2.26-5.67Q2.11-6.03 2.11-6.54L2.11-6.54Q2.11-7.12 2.33-7.62Q2.56-8.11 3.00-8.47Q3.45-8.83 4.09-9.02Q4.73-9.22 5.56-9.22L5.56-9.22Q5.95-9.22 6.31-9.16Q6.66-9.10 6.95-9.01Q7.24-8.92 7.46-8.82Q7.68-8.72 7.79-8.65L7.79-8.65L7.20-7.66Q6.98-7.84 6.49-7.99Q6.01-8.14 5.34-8.14L5.34-8.14Q4.93-8.14 4.57-8.05Q4.21-7.97 3.95-7.79Q3.69-7.61 3.54-7.33Q3.38-7.05 3.38-6.66L3.38-6.66Q3.38-6.32 3.48-6.09Q3.59-5.86 3.77-5.69Q3.95-5.51 4.22-5.37Q4.49-5.23 4.80-5.07L4.80-5.07Q5.19-4.88 5.53-4.67Q5.88-4.47 6.14-4.20Q6.40-3.93 6.55-3.56Q6.70-3.20 6.70-2.68L6.70-2.68Q6.70-1.96 6.42-1.42Q6.14-0.88 5.65-0.53Q5.16-0.17 4.49 0.01Q3.82 0.20 3.04 0.20L3.04 0.20Q2.52 0.20 2.10 0.12Q1.68 0.05 1.36-0.05Q1.04-0.16 0.82-0.27Q0.60-0.38 0.48-0.47L0.48-0.47L1.07-1.50Q1.31-1.33 1.85-1.11Q2.38-0.90 3.20-0.90Z" transform="translate(-3.824785714285715 0), rotate(3.3024740796831304 4.134 1474.4287148397455)"></path><path d="M2.39-9.01L9.09-9.01L8.84-7.96L6.12-7.96L4.21 0L2.95 0L4.86-7.96L2.15-7.96L2.39-9.01Z" transform="translate(-3.714285714285715 0), rotate(3.5980457828518153 5.616000000000001 1474.4287148397455)"></path><path d="M1.29-1.48L2.57-1.48Q2.51-1.01 2.35-0.53Q2.20-0.05 1.97 0.41Q1.74 0.87 1.46 1.29Q1.17 1.72 0.86 2.07L0.86 2.07L0.04 1.73Q0.30 1.38 0.51 0.96Q0.73 0.55 0.88 0.12Q1.04-0.31 1.14-0.72Q1.25-1.13 1.29-1.48L1.29-1.48Z" transform="translate(-2.0632857142857146 0), rotate(3.8245573159366257 1.3065 1474.4287148397455)"></path><path d="" transform="translate(-1.9657857142857142 0), rotate(3.9825183480894664 0 1474.4287148397455)"></path><path d="M6.71-2.31L2.78-2.31L1.51 0L0.13 0Q1.59-2.63 2.97-4.84Q4.36-7.05 5.71-9.01L5.71-9.01L6.94-9.01Q7.14-8.03 7.30-7.04Q7.46-6.05 7.62-4.95Q7.77-3.86 7.92-2.64Q8.06-1.42 8.22 0L8.22 0L6.94 0Q6.88-0.59 6.83-1.18Q6.77-1.77 6.71-2.31L6.71-2.31ZM3.37-3.33L6.59-3.33Q6.49-4.38 6.35-5.42Q6.21-6.46 6.03-7.57L6.03-7.57Q5.58-6.90 4.90-5.86Q4.23-4.81 3.37-3.33L3.37-3.33Z" transform="translate(-4.598285714285715 0), rotate(4.239864864864864 4.173 1474.4287148397455)"></path><path d="M2.31 0L1.05 0L3.21-9.01L8.48-9.01L8.23-7.96L4.21-7.96L3.55-5.20L7.11-5.20L6.86-4.17L3.32-4.17L2.31 0Z" transform="translate(-3.8702857142857146 0), rotate(4.571877912395151 4.764500000000001 1474.4287148397455)"></path><path d="M2.31 0L1.05 0L3.21-9.01L8.48-9.01L8.23-7.96L4.21-7.96L3.55-5.20L7.11-5.20L6.86-4.17L3.32-4.17L2.31 0Z" transform="translate(-3.8702857142857146 0), rotate(4.8753494874184495 4.764500000000001 1474.4287148397455)"></path><path d="M6.83-9.22L6.83-9.22Q7.54-9.22 8.14-9.00Q8.75-8.79 9.18-8.36Q9.62-7.93 9.86-7.29Q10.10-6.64 10.10-5.79L10.10-5.79Q10.10-4.71 9.77-3.64Q9.44-2.57 8.79-1.72Q8.14-0.87 7.16-0.34Q6.19 0.20 4.89 0.20L4.89 0.20Q4.16 0.20 3.56-0.02Q2.96-0.23 2.53-0.66Q2.09-1.09 1.85-1.74Q1.61-2.38 1.61-3.24L1.61-3.24Q1.61-4.30 1.94-5.38Q2.26-6.45 2.92-7.30Q3.58-8.15 4.55-8.68Q5.53-9.22 6.83-9.22ZM5.02-0.90L5.02-0.90Q5.89-0.90 6.59-1.32Q7.29-1.74 7.78-2.42Q8.27-3.09 8.53-3.94Q8.79-4.78 8.79-5.63L8.79-5.63Q8.79-6.79 8.29-7.46Q7.79-8.13 6.70-8.13L6.70-8.13Q5.81-8.13 5.12-7.70Q4.42-7.28 3.93-6.60Q3.45-5.93 3.19-5.08Q2.93-4.24 2.93-3.39L2.93-3.39Q2.93-2.24 3.43-1.57Q3.93-0.90 5.02-0.90Z" transform="translate(-5.267785714285715 0), rotate(5.233610496272131 5.8565000000000005 1474.4287148397455)"></path><path d="M5.50-9.10L5.50-9.10Q6.94-9.10 7.79-8.52Q8.63-7.93 8.63-6.80L8.63-6.80Q8.63-5.66 7.96-4.88Q7.29-4.11 6.08-3.77L6.08-3.77Q6.24-3.50 6.45-3.07Q6.66-2.65 6.88-2.14Q7.10-1.63 7.31-1.07Q7.51-0.52 7.67 0L7.67 0L6.38 0Q6.20-0.49 6.01-1.00Q5.81-1.51 5.61-1.98Q5.41-2.44 5.21-2.85Q5.01-3.26 4.84-3.58L4.84-3.58Q4.67-3.56 4.50-3.56Q4.33-3.55 4.16-3.55L4.16-3.55L3.16-3.55L2.31 0L1.05 0L3.19-8.89Q3.73-9.02 4.34-9.06Q4.95-9.10 5.50-9.10ZM5.34-8.03L5.34-8.03Q4.42-8.03 4.23-7.98L4.23-7.98L3.41-4.58L4.17-4.58Q4.71-4.58 5.27-4.65Q5.82-4.73 6.29-4.96Q6.75-5.19 7.04-5.60Q7.33-6.01 7.33-6.68L7.33-6.68Q7.33-7.41 6.78-7.72Q6.23-8.03 5.34-8.03Z" transform="translate(-4.422785714285714 0), rotate(5.613532444082009 4.842500000000001 1474.4287148397455)"></path><path d="M5.40-8.03L5.40-8.03Q4.42-8.03 4.23-7.98L4.23-7.98L2.56-1.04Q2.67-1.01 2.91-0.99Q3.16-0.98 3.72-0.98L3.72-0.98Q4.75-0.98 5.57-1.32Q6.40-1.66 6.97-2.28Q7.54-2.90 7.85-3.75Q8.16-4.60 8.16-5.62L8.16-5.62Q8.16-6.76 7.50-7.40Q6.84-8.03 5.40-8.03ZM5.50-9.10L5.50-9.10Q7.50-9.10 8.49-8.16Q9.48-7.22 9.48-5.62L9.48-5.62Q9.48-4.50 9.13-3.46Q8.78-2.43 8.03-1.64Q7.29-0.85 6.14-0.38Q4.99 0.09 3.39 0.09L3.39 0.09Q2.85 0.09 2.21 0.04Q1.57-0.01 1.09-0.14L1.09-0.14L3.19-8.89Q3.73-9.02 4.34-9.06Q4.95-9.10 5.50-9.10Z" transform="translate(-4.923285714285715 0), rotate(5.97994815936626 5.2844999999999995 1474.4287148397455)"></path><path d="M6.71-2.31L2.78-2.31L1.51 0L0.13 0Q1.59-2.63 2.97-4.84Q4.36-7.05 5.71-9.01L5.71-9.01L6.94-9.01Q7.14-8.03 7.30-7.04Q7.46-6.05 7.62-4.95Q7.77-3.86 7.92-2.64Q8.06-1.42 8.22 0L8.22 0L6.94 0Q6.88-0.59 6.83-1.18Q6.77-1.77 6.71-2.31L6.71-2.31ZM3.37-3.33L6.59-3.33Q6.49-4.38 6.35-5.42Q6.21-6.46 6.03-7.57L6.03-7.57Q5.58-6.90 4.90-5.86Q4.23-4.81 3.37-3.33L3.37-3.33Z" transform="translate(-4.598285714285715 0), rotate(6.353244408201301 4.173 1474.4287148397455)"></path><path d="M3.42 0.09L3.42 0.09Q3.16 0.09 2.85 0.08Q2.55 0.07 2.24 0.04Q1.92 0.01 1.63-0.03Q1.33-0.08 1.09-0.14L1.09-0.14L3.19-8.88Q3.73-9.01 4.40-9.05Q5.07-9.10 5.60-9.10L5.60-9.10Q6.27-9.10 6.82-8.99Q7.37-8.88 7.77-8.64Q8.16-8.40 8.39-8.01Q8.62-7.62 8.62-7.07L8.62-7.07Q8.62-6.28 8.14-5.67Q7.67-5.07 6.84-4.77L6.84-4.77Q7.40-4.56 7.74-4.13Q8.09-3.71 8.09-3.08L8.09-3.08Q8.09-2.18 7.72-1.57Q7.36-0.96 6.73-0.59Q6.10-0.22 5.25-0.07Q4.39 0.09 3.42 0.09ZM4.88-4.21L3.30-4.21L2.55-1.01Q2.69-0.99 2.98-0.97Q3.26-0.95 3.71-0.95L3.71-0.95Q4.19-0.95 4.73-1.02Q5.28-1.09 5.73-1.31Q6.19-1.52 6.49-1.91Q6.80-2.30 6.80-2.95L6.80-2.95Q6.80-3.59 6.34-3.90Q5.89-4.21 4.88-4.21L4.88-4.21ZM4.23-7.98L3.55-5.20L4.78-5.20Q5.21-5.20 5.66-5.27Q6.11-5.34 6.48-5.53Q6.85-5.72 7.09-6.05Q7.33-6.37 7.33-6.88L7.33-6.88Q7.33-7.54 6.84-7.80Q6.34-8.06 5.33-8.06L5.33-8.06Q4.99-8.06 4.67-8.03Q4.34-8.01 4.23-7.98L4.23-7.98Z" transform="translate(-4.481285714285715 0), rotate(6.709211905871384 4.855500000000001 1474.4287148397455)"></path><path d="M2.56-1.05L6.55-1.05L6.31 0L1.05 0L3.21-9.01L4.47-9.01L2.56-1.05Z" transform="translate(-3.7597857142857145 0), rotate(7.032305743243239 3.8025 1474.4287148397455)"></path><path d="M6.68 0L1.05 0L3.21-9.01L8.53-9.01L8.28-7.96L4.21-7.96L3.56-5.24L7.18-5.24L6.93-4.21L3.33-4.21L2.56-1.05L6.93-1.05L6.68 0Z" transform="translate(-4.084785714285714 0), rotate(7.339854671481821 4.790500000000001 1474.4287148397455)"></path></g></svg></g> <g transform="rotate(0 287.5 318.57403653001427)"><svg xmlns="http://www.w3.org/2000/svg" x="155.8350067138672" y="299.5240372929537" viewBox="3.2799999713897705 6.170000076293945 263.3299865722656 38.099998474121094" height="38.099998474121094" width="263.3299865722656" style="overflow: visible;"><g fill="#4A73E8" fill-opacity="1" style=""><path d="M3.28 36.87L3.28 9.46L8.27 9.46L8.27 36.87L3.28 36.87ZM13.20 9.46L35.08 9.46L35.08 13.77L26.65 13.77L26.65 36.87L21.62 36.87L21.62 13.77L13.20 13.77L13.20 9.46ZM62.54 37.47L62.54 37.47Q59.45 37.47 57.00 36.52Q54.55 35.57 52.85 33.73Q51.14 31.89 50.23 29.24Q49.32 26.59 49.32 23.14L49.32 23.14Q49.32 19.70 50.37 17.05Q51.42 14.40 53.24 12.56Q55.06 10.72 57.51 9.77Q59.97 8.82 62.78 8.82L62.78 8.82Q64.48 8.82 65.86 9.08Q67.25 9.34 68.28 9.65Q69.30 9.97 69.98 10.33Q70.65 10.68 70.93 10.84L70.93 10.84L69.46 14.92Q68.51 14.32 66.75 13.79Q64.99 13.25 62.93 13.25L62.93 13.25Q61.15 13.25 59.61 13.87Q58.07 14.48 56.94 15.71Q55.81 16.93 55.18 18.79Q54.55 20.65 54.55 23.11L54.55 23.11Q54.55 25.28 55.04 27.10Q55.54 28.92 56.56 30.25Q57.59 31.57 59.18 32.30Q60.76 33.04 62.97 33.04L62.97 33.04Q65.62 33.04 67.29 32.50Q68.95 31.97 69.86 31.49L69.86 31.49L71.20 35.57Q70.73 35.88 69.92 36.20Q69.11 36.52 68.00 36.81Q66.89 37.11 65.51 37.29Q64.12 37.47 62.54 37.47ZM87.88 16.18L92.83 16.18Q89.62 27.97 85.39 37.55L85.39 37.55Q84.60 39.33 83.77 40.59Q82.94 41.86 81.91 42.69Q80.88 43.52 79.61 43.90Q78.35 44.27 76.69 44.27L76.69 44.27Q75.58 44.27 74.49 44.03Q73.40 43.80 72.85 43.52L72.85 43.52L73.72 39.68Q75.14 40.24 76.53 40.24L76.53 40.24Q78.39 40.24 79.44 39.35Q80.48 38.46 81.27 36.60L81.27 36.60Q79.02 32.24 76.94 27.10Q74.87 21.96 73.24 16.18L73.24 16.18L78.35 16.18Q78.74 17.84 79.32 19.78Q79.89 21.72 80.56 23.72Q81.24 25.72 81.99 27.69Q82.74 29.67 83.49 31.37L83.49 31.37Q84.76 27.85 85.86 23.88Q86.97 19.90 87.88 16.18L87.88 16.18ZM111.33 26.47L111.33 26.47Q111.33 23.42 110.12 21.64Q108.91 19.86 106.30 19.86L106.30 19.86Q105.11 19.86 104.07 20.22Q103.02 20.57 102.38 21.01L102.38 21.01L102.38 32.92Q102.90 33.04 103.71 33.13Q104.52 33.23 105.67 33.23L105.67 33.23Q108.32 33.23 109.82 31.43Q111.33 29.63 111.33 26.47ZM116.23 26.55L116.23 26.55Q116.23 29.04 115.50 31.04Q114.77 33.04 113.40 34.46Q112.04 35.88 110.10 36.64Q108.16 37.39 105.71 37.39L105.71 37.39Q103.33 37.39 101.18 37.03Q99.02 36.68 97.60 36.24L97.60 36.24L97.60 6.96L102.38 6.17L102.38 16.89Q103.22 16.46 104.42 16.10Q105.63 15.75 107.09 15.75L107.09 15.75Q109.27 15.75 110.99 16.52Q112.71 17.29 113.86 18.71Q115.01 20.14 115.62 22.14Q116.23 24.13 116.23 26.55ZM121.16 26.63L121.16 26.63Q121.16 23.90 121.97 21.84Q122.78 19.78 124.13 18.42Q125.47 17.05 127.21 16.36Q128.95 15.67 130.77 15.67L130.77 15.67Q135.05 15.67 137.44 18.32Q139.83 20.97 139.83 26.23L139.83 26.23Q139.83 26.63 139.81 27.12Q139.80 27.62 139.76 28.01L139.76 28.01L126.11 28.01Q126.30 30.50 127.87 31.87Q129.43 33.23 132.40 33.23L132.40 33.23Q134.14 33.23 135.58 32.92Q137.03 32.60 137.86 32.24L137.86 32.24L138.49 36.16Q138.09 36.36 137.40 36.58Q136.71 36.79 135.82 36.97Q134.93 37.15 133.90 37.27Q132.87 37.39 131.80 37.39L131.80 37.39Q129.07 37.39 127.06 36.58Q125.04 35.77 123.73 34.32Q122.43 32.88 121.79 30.92Q121.16 28.96 121.16 26.63ZM126.15 24.49L135.05 24.49Q135.05 23.50 134.77 22.61Q134.49 21.72 133.96 21.07Q133.43 20.41 132.65 20.04Q131.88 19.66 130.81 19.66L130.81 19.66Q129.71 19.66 128.88 20.08Q128.04 20.49 127.47 21.17Q126.90 21.84 126.58 22.71Q126.26 23.58 126.15 24.49L126.15 24.49ZM158.65 16.46L157.82 20.49Q157.23 20.30 156.18 20.08Q155.13 19.86 153.74 19.86L153.74 19.86Q152.95 19.86 152.06 20.02Q151.17 20.18 150.82 20.30L150.82 20.30L150.82 36.87L146.03 36.87L146.03 17.17Q147.41 16.66 149.49 16.20Q151.57 15.75 154.10 15.75L154.10 15.75Q154.58 15.75 155.21 15.81Q155.84 15.87 156.47 15.96Q157.11 16.06 157.70 16.20Q158.29 16.34 158.65 16.46L158.65 16.46ZM168.29 33.43L168.29 33.43Q170.19 33.43 171.06 32.98Q171.93 32.52 171.93 31.41L171.93 31.41Q171.93 30.38 171.00 29.71Q170.07 29.04 167.93 28.25L167.93 28.25Q166.62 27.77 165.54 27.24Q164.45 26.71 163.66 25.99Q162.87 25.28 162.41 24.27Q161.96 23.26 161.96 21.80L161.96 21.80Q161.96 18.95 164.05 17.31Q166.15 15.67 169.75 15.67L169.75 15.67Q171.57 15.67 173.23 16.00Q174.89 16.34 175.72 16.66L175.72 16.66L174.85 20.53Q174.06 20.18 172.84 19.88Q171.61 19.58 169.99 19.58L169.99 19.58Q168.52 19.58 167.61 20.08Q166.70 20.57 166.70 21.60L166.70 21.60Q166.70 22.12 166.88 22.51Q167.06 22.91 167.50 23.24Q167.93 23.58 168.64 23.92Q169.35 24.25 170.38 24.61L170.38 24.61Q172.08 25.24 173.27 25.85Q174.46 26.47 175.23 27.24Q176.00 28.01 176.36 29.00Q176.71 29.99 176.71 31.37L176.71 31.37Q176.71 34.34 174.52 35.86Q172.32 37.39 168.25 37.39L168.25 37.39Q165.52 37.39 163.86 36.93Q162.19 36.48 161.52 36.20L161.52 36.20L162.35 32.20Q163.42 32.64 164.90 33.04Q166.39 33.43 168.29 33.43ZM196.04 26.63L196.04 26.63Q196.04 23.42 194.60 21.64Q193.16 19.86 189.95 19.86L189.95 19.86Q189.28 19.86 188.55 19.92Q187.81 19.98 187.10 20.18L187.10 20.18L187.10 32.01Q187.74 32.44 188.78 32.82Q189.83 33.19 191.02 33.19L191.02 33.19Q193.63 33.19 194.84 31.41Q196.04 29.63 196.04 26.63ZM200.95 26.55L200.95 26.55Q200.95 28.92 200.34 30.90Q199.72 32.88 198.58 34.30Q197.43 35.73 195.71 36.52Q193.99 37.31 191.81 37.31L191.81 37.31Q190.35 37.31 189.12 36.95Q187.89 36.60 187.10 36.16L187.10 36.16L187.10 44.19L182.31 44.19L182.31 16.85Q183.78 16.46 185.92 16.10Q188.05 15.75 190.43 15.75L190.43 15.75Q192.88 15.75 194.82 16.50Q196.76 17.25 198.12 18.65Q199.49 20.06 200.22 22.06Q200.95 24.05 200.95 26.55ZM214.30 33.51L214.30 33.51Q216.52 33.51 217.67 33.27L217.67 33.27L217.67 27.97Q217.27 27.85 216.52 27.73Q215.77 27.62 214.86 27.62L214.86 27.62Q214.07 27.62 213.26 27.73Q212.45 27.85 211.79 28.17Q211.14 28.49 210.74 29.06Q210.35 29.63 210.35 30.50L210.35 30.50Q210.35 32.20 211.42 32.86Q212.48 33.51 214.30 33.51ZM213.91 15.67L213.91 15.67Q216.28 15.67 217.91 16.26Q219.53 16.85 220.50 17.92Q221.47 18.99 221.88 20.51Q222.30 22.04 222.30 23.86L222.30 23.86L222.30 36.40Q221.19 36.64 218.95 36.97Q216.72 37.31 213.91 37.31L213.91 37.31Q212.05 37.31 210.51 36.95Q208.96 36.60 207.88 35.81Q206.79 35.01 206.17 33.75Q205.56 32.48 205.56 30.62L205.56 30.62Q205.56 28.84 206.25 27.62Q206.95 26.39 208.13 25.62Q209.32 24.85 210.88 24.51Q212.45 24.17 214.15 24.17L214.15 24.17Q214.94 24.17 215.81 24.27Q216.68 24.37 217.67 24.61L217.67 24.61L217.67 23.82Q217.67 22.99 217.47 22.23Q217.27 21.48 216.78 20.91Q216.28 20.34 215.47 20.02Q214.66 19.70 213.43 19.70L213.43 19.70Q211.77 19.70 210.39 19.94Q209.00 20.18 208.13 20.49L208.13 20.49L207.54 16.62Q208.45 16.30 210.19 15.98Q211.93 15.67 213.91 15.67ZM228.14 26.55L228.14 26.55Q228.14 24.25 228.85 22.25Q229.56 20.26 230.88 18.79Q232.21 17.33 234.11 16.50Q236.01 15.67 238.38 15.67L238.38 15.67Q241.31 15.67 243.92 16.74L243.92 16.74L242.89 20.65Q242.06 20.30 241.01 20.06Q239.96 19.82 238.78 19.82L238.78 19.82Q235.97 19.82 234.50 21.58Q233.04 23.34 233.04 26.55L233.04 26.55Q233.04 29.63 234.43 31.43Q235.81 33.23 239.09 33.23L239.09 33.23Q240.32 33.23 241.51 33.00Q242.69 32.76 243.56 32.40L243.56 32.40L244.24 36.36Q243.45 36.75 241.84 37.07Q240.24 37.39 238.54 37.39L238.54 37.39Q235.89 37.39 233.93 36.58Q231.97 35.77 230.69 34.32Q229.40 32.88 228.77 30.88Q228.14 28.88 228.14 26.55ZM247.94 26.63L247.94 26.63Q247.94 23.90 248.75 21.84Q249.56 19.78 250.91 18.42Q252.25 17.05 253.99 16.36Q255.73 15.67 257.55 15.67L257.55 15.67Q261.83 15.67 264.22 18.32Q266.61 20.97 266.61 26.23L266.61 26.23Q266.61 26.63 266.59 27.12Q266.57 27.62 266.53 28.01L266.53 28.01L252.88 28.01Q253.08 30.50 254.65 31.87Q256.21 33.23 259.18 33.23L259.18 33.23Q260.92 33.23 262.36 32.92Q263.80 32.60 264.64 32.24L264.64 32.24L265.27 36.16Q264.87 36.36 264.18 36.58Q263.49 36.79 262.60 36.97Q261.71 37.15 260.68 37.27Q259.65 37.39 258.58 37.39L258.58 37.39Q255.85 37.39 253.83 36.58Q251.82 35.77 250.51 34.32Q249.21 32.88 248.57 30.92Q247.94 28.96 247.94 26.63ZM252.92 24.49L261.83 24.49Q261.83 23.50 261.55 22.61Q261.27 21.72 260.74 21.07Q260.20 20.41 259.43 20.04Q258.66 19.66 257.59 19.66L257.59 19.66Q256.49 19.66 255.65 20.08Q254.82 20.49 254.25 21.17Q253.68 21.84 253.36 22.71Q253.04 23.58 252.92 24.49L252.92 24.49Z" transform="translate(0, 0)"></path></g></svg></g></svg>